<svg height="682pt" viewBox="-109 -21 682 682.66866" width="682pt" xmlns="http://www.w3.org/2000/svg"><path d="m52.664062 493.902344c0 29.398437 20.265626 54.148437 47.554688 61.039062l-19.175781 69.46875c-4.296875 15.574219 19.953125 22.359375 24.273437 6.699219l6.949219-25.1875h66.546875c16.160156 0 16.1875-25.179687 0-25.179687h-59.59375l6.589844-23.886719h204.761718l6.597657 23.886719h-58.582031c-16.164063 0-16.183594 25.179687 0 25.179687h65.527343l6.949219 25.1875c4.316406 15.640625 28.574219 8.886719 24.273438-6.699219l-19.488282-70.609375c25.273438-8.183593 43.605469-31.933593 43.605469-59.898437l-.015625-105.347656h33.085938c13.882812 0 25.179687-11.292969 25.179687-25.179688v-70.117188c0-13.882812-11.296875-25.179687-25.179687-25.179687h-32.589844c0-14.382813.402344-28.816406-.042969-43.1875-1.054687-34.53125-28.949219-61.582031-63.5-61.582031h-8.3125c.625-1.621094 1.222656-3.257813 1.789063-4.910156 15.855468-46.609376.214843-104.398438-36.382813-134.421876-38.96875-31.96875-95.542969-31.96875-134.511719 0-35.738281 29.320313-51.742187 83.382813-38.054687 128.554688 1.105469 3.652344 2.390625 7.234375 3.800781 10.777344h-8.253906c-34.453125 0-62.261719 27.050781-63.3125 61.582031-.433594 14.367187-.003906 28.8125-.003906 43.1875h-33.550782c-13.882812 0-25.179687 11.296875-25.179687 25.179687v70.117188c0 13.886719 11.296875 25.179688 25.179687 25.179688h33.417969zm321.957032-115.03125h-296.292969v-141.007813h101.09375c11.816406 11.269531 24.234375 21.796875 36.28125 31.71875 7.246094 5.964844 13.722656 6.027344 21.054687-.007812 11.742188-9.675781 24.476563-20.167969 36.789063-31.710938h101.207031zm-38.230469-190.382813c16.265625 0 30.09375 9.929688 35.6875 24.195313h-74.351563c6.480469-7.636719 12.492188-15.683594 17.753907-24.195313zm-161.445313-145.039062c14.859376-12.191407 33.066407-18.285157 51.285157-18.285157 18.207031 0 36.425781 6.097657 51.28125 18.285157 28.433593 23.320312 40.957031 70.253906 28.511719 106.839843-13.210938 38.847657-47.800782 68.882813-79.785157 95.320313-33.84375-28.1875-69.378906-61.296875-81.226562-100.382813-10.683594-35.257812 2.183593-79.019531 29.933593-101.777343zm-58.480468 145.039062h21.195312c5.28125 8.40625 11.308594 16.464844 17.847656 24.195313h-74.558593c5.566406-14.265625 19.324219-24.195313 35.515625-24.195313zm-63.800782 174.886719h-33.066406v-70.117188h33.066406zm283.839844 168.300781h-220.886718c-20.824219 0-37.773438-16.945312-37.773438-37.773437v-89.847656h296.425781v89.847656c0 20.828125-16.941406 37.773437-37.765625 37.773437zm96.019532-168.300781h-32.589844v-70.117188h32.589844l.015624 70.117188s-.007812 0-.015624 0zm0 0"/><path d="m195.886719 423.492188h-82.183594c-6.953125 0-12.585937 5.632812-12.585937 12.585937v52.332031c0 6.953125 5.632812 12.589844 12.585937 12.589844h82.183594c6.957031 0 12.59375-5.636719 12.59375-12.589844v-52.332031c0-6.953125-5.636719-12.585937-12.59375-12.585937zm-12.585938 52.328124h-57.003906v-27.148437h57.003906zm0 0"/><path d="m340.15625 423.492188h-82.183594c-6.953125 0-12.59375 5.632812-12.59375 12.585937v52.332031c0 6.953125 5.640625 12.589844 12.59375 12.589844h82.183594c6.953125 0 12.589844-5.636719 12.589844-12.589844v-52.332031c0-6.953125-5.636719-12.585937-12.589844-12.585937zm-12.589844 52.328124h-57.007812v-27.148437h57.007812zm0 0"/><path d="m226.230469 172.429688c34.453125 0 62.480469-28.027344 62.480469-62.480469s-28.027344-62.480469-62.480469-62.480469-62.480469 28.027344-62.480469 62.480469 28.027344 62.480469 62.480469 62.480469zm0-99.78125c20.566406 0 37.296875 16.734374 37.296875 37.300781 0 20.566406-16.730469 37.296875-37.296875 37.296875-20.566407 0-37.300781-16.730469-37.300781-37.296875 0-20.566407 16.734374-37.300781 37.300781-37.300781zm0 0"/><path d="m227.191406 289.203125c-4.917968-4.914063-12.886718-4.914063-17.808594 0l-49.3125 49.3125c-11.316406 11.320313 6.40625 29.203125 17.804688 17.808594l49.316406-49.316407c4.917969-4.917968 4.917969-12.890624 0-17.804687-4.917968-4.914063 4.917969 4.914063 0 0zm0 0"/><path d="m279.28125 289.203125-49.316406 49.3125c-11.320313 11.320313 6.40625 29.203125 17.808594 17.808594l49.308593-49.316407c11.484375-11.484374-6.316406-29.289062-17.800781-17.804687zm0 0"/><path d="m228.582031 580.738281c-6.84375 0-12.585937 5.746094-12.59375 12.59375 0 6.84375 5.75 12.585938 12.59375 12.585938 6.644531 0 12.269531-5.410157 12.5625-12.035157.3125-7.046874-5.496093-13.144531-12.5625-13.144531zm0 0"/></svg>