<svg height="493pt" viewBox="0 -28 493.01844 493" width="493pt" xmlns="http://www.w3.org/2000/svg"><path d="m361.078125 281.496094h-24.484375c-3.867188 0-7 3.132812-7 7 0 3.867187 3.132812 7 7 7h24.484375c3.867187 0 7-3.132813 7-7 0-3.867188-3.132813-7-7-7zm0 0"/><path d="m361.078125 325.496094h-24.484375c-3.867188 0-7 3.132812-7 7 0 3.867187 3.132812 7 7 7h24.484375c3.867187 0 7-3.132813 7-7 0-3.867188-3.132813-7-7-7zm0 0"/><path d="m361.078125 368.496094h-24.484375c-3.867188 0-7 3.132812-7 7 0 3.867187 3.132812 7 7 7h24.484375c3.867187 0 7-3.132813 7-7 0-3.867188-3.132813-7-7-7zm0 0"/><path d="m270.484375 222.410156c3.867187 0 7-3.132812 7-7v-27.984375c0-3.867187-3.132813-7-7-7s-7 3.132813-7 7v27.984375c0 3.867188 3.132813 7 7 7zm0 0"/><path d="m226.484375 222.410156c3.867187 0 7-3.132812 7-7v-27.984375c0-3.867187-3.132813-7-7-7s-7 3.132813-7 7v27.984375c0 3.867188 3.132813 7 7 7zm0 0"/><path d="m182.484375 222.410156c3.867187 0 7-3.132812 7-7v-27.984375c0-3.867187-3.132813-7-7-7s-7 3.132813-7 7v27.984375c0 3.867188 3.132813 7 7 7zm0 0"/><path d="m361.078125 237.496094h-24.484375c-3.867188 0-7 3.132812-7 7 0 3.867187 3.132812 7 7 7h24.484375c3.867187 0 7-3.132813 7-7 0-3.867188-3.132813-7-7-7zm0 0"/><path d="m410.589844 281.496094h-24.484375c-3.867188 0-7 3.132812-7 7 0 3.867187 3.132812 7 7 7h24.484375c3.867187 0 7-3.132813 7-7 0-3.867188-3.132813-7-7-7zm0 0"/><path d="m410.589844 325.496094h-24.484375c-3.867188 0-7 3.132812-7 7 0 3.867187 3.132812 7 7 7h24.484375c3.867187 0 7-3.132813 7-7 0-3.867188-3.132813-7-7-7zm0 0"/><path d="m410.589844 368.496094h-24.484375c-3.867188 0-7 3.132812-7 7 0 3.867187 3.132812 7 7 7h24.484375c3.867187 0 7-3.132813 7-7 0-3.867188-3.132813-7-7-7zm0 0"/><path d="m386.105469 251.496094h24.484375c3.867187 0 7-3.132813 7-7 0-3.867188-3.132813-7-7-7h-24.484375c-3.867188 0-7 3.132812-7 7 0 3.867187 3.132812 7 7 7zm0 0"/><path d="m226.484375 148.433594c3.867187 0 7-3.132813 7-7v-27.984375c0-3.863281-3.132813-7-7-7s-7 3.136719-7 7v27.984375c0 3.867187 3.132813 7 7 7zm0 0"/><path d="m182.484375 148.433594c3.867187 0 7-3.132813 7-7v-27.984375c0-3.863281-3.132813-7-7-7s-7 3.136719-7 7v27.984375c0 3.867187 3.132813 7 7 7zm0 0"/><path d="m270.484375 296.386719c3.867187 0 7-3.132813 7-7v-27.984375c0-3.863282-3.132813-7-7-7s-7 3.136718-7 7v27.984375c0 3.867187 3.132813 7 7 7zm0 0"/><path d="m226.484375 296.386719c3.867187 0 7-3.132813 7-7v-27.984375c0-3.863282-3.132813-7-7-7s-7 3.136718-7 7v27.984375c0 3.867187 3.132813 7 7 7zm0 0"/><path d="m182.484375 296.386719c3.867187 0 7-3.132813 7-7v-27.984375c0-3.863282-3.132813-7-7-7s-7 3.136718-7 7v27.984375c0 3.867187 3.132813 7 7 7zm0 0"/><path d="m270.484375 370.363281c3.867187 0 7-3.132812 7-7v-27.984375c0-3.867187-3.132813-7-7-7s-7 3.132813-7 7v27.984375c0 3.867188 3.132813 7 7 7zm0 0"/><path d="m226.484375 370.363281c3.867187 0 7-3.132812 7-7v-27.984375c0-3.867187-3.132813-7-7-7s-7 3.132813-7 7v27.984375c0 3.867188 3.132813 7 7 7zm0 0"/><path d="m182.484375 370.363281c3.867187 0 7-3.132812 7-7v-27.984375c0-3.867187-3.132813-7-7-7s-7 3.132813-7 7v27.984375c0 3.867188 3.132813 7 7 7zm0 0"/><path d="m379.253906.0078125c-28.683594-.046875-56.300781 10.8593755-77.214844 30.4882815h-159.753906c-1.789062-.089844-3.539062.566406-4.828125 1.8125-1.289062 1.246094-2.003906 2.96875-1.972656 4.761718v144.425782h-74.53125c-4.019531.113281-7.273437 3.300781-7.46875 7.320312v53.679688h-46.464844c-3.867187 0-6.535156 3.152344-6.535156 7.019531v46.691406c-1 .453125-.140625.921875-.140625 1.398438 0 .476562-.859375.949219.140625 1.40625v40.914062c-1 .453125-.140625.921875-.140625 1.402344s-.859375.957031.140625 1.414063v40.910156c-1 .453125-.140625.925781-.140625 1.40625 0 .480468-.859375.949218.140625 1.398437v43.738281c0 3.867188 2.667969 7.300782 6.535156 7.300782h424.609375c3.894532-.15625 6.945313-3.402344 6.855469-7.300782v-219.472656c43.527344-26.511718 64.085937-78.757812 50.292969-127.820312-13.789063-49.0625-58.558594-82.9453128-109.523438-82.8945315zm-229.769531 44.4882815h139.726563c-14.328126 18.414062-22.582032 40.820312-23.625 64.128906-1.355469 1.234375-2.121094 2.992188-2.101563 4.824219v27.984375c-.011719 1.851562.71875 3.632812 2.023437 4.945312 1.304688 1.3125 3.078126 2.054688 4.929688 2.054688.09375-.003906.1875-.011719.28125-.023438 6.519531 20.265625 18.558594 38.316406 34.765625 52.117188v222.96875h-156zm-14 290h-121v-30h121zm-121 14h121v30h-121zm46.46875-92c3.867187 0 6.53125-3.113282 6.53125-6.980469v-54.019531h68v95h-121v-34zm-46.46875 136h121v31h-121zm410 31h-105v-212.820313c18 10.644531 37.765625 16.796875 59.539063 16.796875 15.640624.007813 31.117187-3.210937 45.460937-9.449218zm-45.230469-210.027344c-55.140625 0-99.835937-44.699219-99.835937-99.835938 0-55.140624 44.695312-99.835937 99.835937-99.835937 55.136719 0 99.835938 44.695313 99.835938 99.835937-.0625 55.113282-44.722656 99.773438-99.835938 99.835938zm0 0"/><path d="m335.539062 58.605469c-19.386718 19.292969-23.714843 49.066406-10.625 73.078125.015626.03125.03125.0625.050782.089844 2.835937 5.230468 6.394531 10.03125 10.574218 14.261718l38.636719 38.636719c2.734375 2.734375 7.167969 2.734375 9.902344 0l38.636719-38.636719c24.175781-24.171875 24.289062-63.398437.253906-87.429687-24.160156-24.105469-63.273438-24.105469-87.429688 0zm77.273438 77.53125-33.6875 33.6875-33.6875-33.6875c-3.242188-3.300781-6.007812-7.042969-8.210938-11.113281-11.777343-21.652344-5.152343-48.703126 15.296876-62.464844 20.445312-13.757813 48.003906-9.707032 63.625 9.355468 15.617187 19.0625 14.175781 46.878907-3.335938 64.222657zm0 0"/><path d="m379.125 64.070312c-20.214844 0-36.601562 16.382813-36.601562 36.597657 0 20.214843 16.386718 36.601562 36.601562 36.601562s36.601562-16.386719 36.601562-36.601562c-.023437-20.203125-16.398437-36.578125-36.601562-36.597657zm0 59.199219c-12.480469 0-22.601562-10.121093-22.601562-22.601562s10.121093-22.597657 22.601562-22.597657 22.601562 10.117188 22.601562 22.597657c-.015624 12.476562-10.125 22.585937-22.601562 22.601562zm0 0"/></svg>