<svg height="517pt" viewBox="0 -51 517.3706 517" width="517pt" xmlns="http://www.w3.org/2000/svg"><path d="m459.746094 148.851562c-1.304688-1.894531-3.457032-3.023437-5.757813-3.023437s-4.457031 1.128906-5.761719 3.023437l-56.386718 81.714844c-1.480469 2.140625-1.648438 4.925782-.4375 7.230469 1.207031 2.304687 3.597656 3.746094 6.199218 3.746094h47.214844c-6.878906 44.890625-30.46875 85.667969-66.886718 115.351562-34.695313 28.273438-78.289063 44.492188-119.609376 44.492188-26.953124 0-55.128906-6.902344-81.484374-19.964844-27.074219-13.351563-50.769532-32.667969-69.308594-56.492187-2.359375-3.0625-6.753906-3.632813-9.816406-1.273438s-3.632813 6.757812-1.269532 9.816406c19.835938 25.511719 45.199219 46.191406 74.179688 60.492188 28.277344 14.011718 58.597656 21.421875 87.699218 21.421875 44.484376 0 91.300782-17.367188 128.449219-47.640625 39.703125-32.355469 65.222657-77.035156 72.203125-126.199219h51.398438c2.601562 0 4.988281-1.445313 6.199218-3.746094 1.207032-2.304687 1.039063-5.089843-.4375-7.230469zm-48.8125 78.691407 43.054687-62.390625 43.050781 62.390625zm0 0"/><path d="m125.972656 177.773438c-1.210937-2.304688-3.597656-3.746094-6.199218-3.746094h-47.214844c6.878906-44.890625 30.464844-85.667969 66.886718-115.351563 34.695313-28.273437 78.289063-44.492187 119.609376-44.492187 26.949218 0 55.128906 6.902344 81.484374 19.964844 27.074219 13.355468 50.769532 32.667968 69.308594 56.492187 2.359375 3.0625 6.753906 3.632813 9.816406 1.273437 3.0625-2.359374 3.632813-6.753906 1.273438-9.816406-19.839844-25.511718-45.203125-46.191406-74.183594-60.492187-28.277344-14.011719-58.597656-21.421875-87.699218-21.421875-44.484376 0-91.300782 17.367187-128.449219 47.640625-39.703125 32.355469-65.226563 77.035156-72.203125 126.199219h-51.402344c-2.601562 0-4.988281 1.445312-6.199219 3.746093-1.207031 2.304688-1.039062 5.089844.4375 7.230469l56.386719 81.714844c1.308594 1.894531 3.460938 3.023437 5.761719 3.023437s4.453125-1.128906 5.761719-3.023437l56.386718-81.714844c1.476563-2.140625 1.644532-4.921875.4375-7.226562zm-62.585937 72.644531-43.050781-62.390625h86.097656zm0 0"/><path d="m131.6875 207.785156c0 69.867188 56.972656 126.707032 127 126.707032s127-56.839844 127-126.707032c0-69.867187-56.972656-126.707031-127-126.707031s-127 56.839844-127 126.707031zm240 0c0 62.144532-50.691406 112.707032-113 112.707032s-113-50.5625-113-112.707032c0-62.144531 50.691406-112.707031 113-112.707031s113 50.5625 113 112.707031zm0 0"/><path d="m216.964844 136.785156c-3.867188 0-7 3.132813-7 7 0 3.867188 3.132812 7 7 7h23.878906c13.203125.019532 24.710938 8.996094 27.9375 21.800782h-51.816406c-3.867188 0-7 3.132812-7 7 0 3.867187 3.132812 7 7 7h51.816406c-3.226562 12.804687-14.734375 21.78125-27.9375 21.800781h-23.878906c-2.867188 0-5.445313 1.746093-6.503906 4.410156-1.0625 2.667969-.386719 5.707031 1.695312 7.675781l59.679688 56.402344c2.8125 2.644531 7.234374 2.515625 9.886718-.292969 2.652344-2.804687 2.53125-7.226562-.269531-9.882812l-46.890625-44.3125h6.28125c20.921875-.03125 38.769531-15.164063 42.21875-35.800781h17.347656c3.863282 0 7-3.132813 7-7 0-3.867188-3.136718-7-7-7h-17.347656c-1.347656-8.136719-5.027344-15.710938-10.585938-21.800782h27.933594c3.863282 0 7-3.132812 7-7 0-3.867187-3.136718-7-7-7zm0 0"/></svg>