<svg height="512pt" viewBox="0 0 512 512.0009" width="512pt" xmlns="http://www.w3.org/2000/svg"><path d="m486.394531 187.738281h-34.132812v-102.398437h8.535156c4.714844 0 8.53125-3.816406 8.53125-8.535156v-34.132813c0-23.523437-19.140625-42.66796875-42.667969-42.66796875h-85.328125c-23.527343 0-42.667969 19.14453175-42.667969 42.66796875v34.132813c0 4.71875 3.816407 8.535156 8.53125 8.535156h8.535157v102.398437h-34.132813c-14.117187 0-25.601562 11.480469-25.601562 25.597657v238.933593c0 9.089844 4.796875 17.039063 11.960937 21.582031-2.117187 3.722657-3.425781 7.96875-3.425781 12.550782 0 14.113281 11.480469 25.597656 25.597656 25.597656 14.117188 0 25.601563-11.480469 25.601563-25.597656 0-3.007813-.617188-5.851563-1.570313-8.535156h139.675782c-.957032 2.683593-1.574219 5.527343-1.574219 8.535156 0 14.113281 11.484375 25.597656 25.601562 25.597656 14.117188 0 25.597657-11.480469 25.597657-25.597656 0-4.582032-1.304688-8.828125-3.421876-12.550782 7.160157-4.542968 11.957032-12.492187 11.957032-21.582031v-238.933593c0-14.117188-11.484375-25.597657-25.601563-25.597657zm-170.664062-145.066406c0-14.117187 11.484375-25.601563 25.601562-25.601563h85.332031c14.113282 0 25.597657 11.484376 25.597657 25.601563v25.601563h-17.066407v-25.601563c0-4.71875-3.816406-8.535156-8.53125-8.535156h-85.332031c-4.71875 0-8.535156 3.816406-8.535156 8.535156v25.601563h-17.066406zm110.933593 42.667969h8.53125v102.398437h-102.398437v-102.398437h8.535156c4.714844 0 8.53125-3.816406 8.53125-8.535156v-25.597657h68.265625v25.597657c0 4.71875 3.816406 8.535156 8.535156 8.535156zm-136.535156 409.59375c-4.707031 0-8.53125-3.824219-8.53125-8.53125 0-4.710938 3.824219-8.535156 8.53125-8.535156 4.710938 0 8.535156 3.824218 8.535156 8.535156 0 4.707031-3.824218 8.53125-8.535156 8.53125zm187.734375 0c-4.710937 0-8.535156-3.824219-8.535156-8.53125 0-4.710938 3.824219-8.535156 8.535156-8.535156 4.707031 0 8.53125 3.824218 8.53125 8.535156 0 4.707031-3.824219 8.53125-8.53125 8.53125zm17.066407-42.664063c0 4.707031-3.828126 8.53125-8.535157 8.53125h-204.796875c-4.707031 0-8.535156-3.824219-8.535156-8.53125v-238.933593c0-4.707032 3.828125-8.53125 8.535156-8.53125h204.796875c4.707031 0 8.535157 3.824218 8.535157 8.53125zm0 0"/><path d="m315.730469 221.871094c-6.582031 0-12.527344 2.5625-17.066407 6.65625v-6.65625h-17.066406v17.066406h10.105469c-.957031 2.683594-1.574219 5.527344-1.574219 8.53125v8.535156h-8.53125v51.199219h8.53125v110.933594c0 14.113281 11.484375 25.597656 25.601563 25.597656 14.117187 0 25.601562-11.480469 25.601562-25.597656v-170.667969c0-14.113281-11.484375-25.597656-25.601562-25.597656zm8.535156 196.261718c0 4.710938-3.828125 8.535157-8.535156 8.535157s-8.535157-3.824219-8.535157-8.535157v-170.664062c0-4.707031 3.828126-8.53125 8.535157-8.53125s8.535156 3.824219 8.535156 8.53125zm0 0"/><path d="m383.996094 221.871094c-14.117188 0-25.601563 11.484375-25.601563 25.597656v170.667969c0 14.113281 11.484375 25.597656 25.601563 25.597656 14.117187 0 25.601562-11.480469 25.601562-25.597656v-170.667969c0-14.113281-11.484375-25.597656-25.601562-25.597656zm8.535156 196.261718c0 4.710938-3.828125 8.535157-8.535156 8.535157-4.707032 0-8.53125-3.824219-8.53125-8.535157v-170.664062c0-4.707031 3.824218-8.53125 8.53125-8.53125 4.707031 0 8.535156 3.824219 8.535156 8.53125zm0 0"/><path d="m452.261719 221.871094c-14.113281 0-25.597657 11.484375-25.597657 25.597656v170.667969c0 14.113281 11.480469 25.597656 25.597657 25.597656 14.117187 0 25.601562-11.480469 25.601562-25.597656v-170.667969c0-14.113281-11.484375-25.597656-25.601562-25.597656zm8.535156 196.261718c0 4.710938-3.824219 8.535157-8.535156 8.535157-4.707031 0-8.53125-3.824219-8.53125-8.535157v-170.664062c0-4.707031 3.824219-8.53125 8.53125-8.53125 4.710937 0 8.535156 3.824219 8.535156 8.53125zm0 0"/><path d="m238.929688 366.933594c0-47.535156-27.972657-88.550782-68.265626-107.773438v-190.886718h-.65625c11.488282-24.523438 12.519532-45.902344.640626-57.777344-13.023438-13.019532-37.78125-10.757813-66.898438 5.511718l-11.542969-11.542968c-12.507812-12.507813-39.316406 3.097656-60.339843 24.132812-21.023438 21.023438-36.640626 47.832032-24.132813 60.339844l11.542969 11.542969c-16.277344 29.109375-18.542969 53.875-5.507813 66.898437 5.738281 5.742188 13.699219 8.484375 23.15625 8.484375 9.234375-.003906 19.90625-2.625 31.339844-7.601562v90.898437c-40.289063 19.222656-68.265625 60.238282-68.265625 107.773438 0 39.527344 19.375 74.527344 49.039062 96.285156-8.773437 4.066406-14.90625 12.894531-14.90625 23.183594 0 14.113281 11.484376 25.597656 25.601563 25.597656s25.597656-11.480469 25.597656-25.597656c0-1.769532-.179687-3.5-.523437-5.167969 10.976562 3.335937 22.605468 5.167969 34.65625 5.167969 12.054687 0 23.679687-1.832032 34.65625-5.167969-.339844 1.667969-.523438 3.398437-.523438 5.167969 0 14.113281 11.484375 25.597656 25.601563 25.597656 14.113281 0 25.597656-11.480469 25.597656-25.597656 0-10.289063-6.132813-19.121094-14.90625-23.183594 29.664063-21.761719 49.039063-56.757812 49.039063-96.285156zm-147.214844-333.484375c.632812-1.269531 1.191406-2.484375 1.691406-3.652344l22.410156 22.410156c.308594 3.898438-5.601562 18.714844-23.609375 36.730469-18.039062 18.042969-33.257812 23.851562-36.722656 23.609375l-22.417969-22.40625c1.167969-.5 2.382813-1.058594 3.652344-1.691406 9.929688-4.96875 21.074219-13.367188 31.347656-23.652344 10.285156-10.273437 18.683594-21.417969 23.648438-31.347656zm-71.339844 42.824219c.644531-5.132813 6.964844-19.015626 23.558594-35.609376 16.5625-16.566406 30.429687-22.886718 35.574218-23.550781-.019531.164063-.011718.285157-.042968.472657-.042969.277343-.125.601562-.203125.921874-.121094.515626-.28125 1.078126-.484375 1.699219-.132813.402344-.289063.832031-.457032 1.273438-.25.667969-.554687 1.386719-.890624 2.144531-.230469.519531-.476563 1.054688-.75 1.617188-.386719.800781-.84375 1.65625-1.320313 2.53125-.339844.628906-.683594 1.257812-1.074219 1.921874-.539062.929688-1.171875 1.917969-1.804687 2.910157-.457031.710937-.890625 1.40625-1.398438 2.148437-.726562 1.066406-1.566406 2.199219-2.402343 3.328125-.554688.75-1.070313 1.476563-1.671876 2.253907-1.003906 1.28125-2.148437 2.628906-3.292968 3.976562-.578125.683594-1.09375 1.339844-1.710938 2.035156-1.835937 2.074219-3.820312 4.203125-6.003906 6.382813-2.15625 2.15625-4.257812 4.117187-6.308594 5.941406-1.230468 1.089844-2.402344 2.039063-3.585937 3.015625-.726563.601562-1.472657 1.253906-2.179688 1.808594-1.734375 1.367187-3.417969 2.613281-5.027343 3.734375-.050782.035156-.105469.078125-.15625.113281-8.421876 5.851562-14.933594 8.453125-18.175782 8.917969-.070312.007812-.125.003906-.191406.011719zm5.460938 79.039062c-5.550782-5.550781-5.417969-20.484375 5.929687-42.339844l12.167969 12.164063c.777344.777343 1.609375 1.445312 2.492187 2.011719.308594.199218.65625.316406.980469.488281.59375.324219 1.179688.667969 1.816406.90625.390625.144531.820313.210937 1.230469.324219.605469.171874 1.203125.375 1.839844.480468.457031.074219.941406.070313 1.410156.113282.605469.054687 1.191406.144531 1.816406.144531.019531 0 .046875-.007813.066407-.007813 1.535156-.003906 3.152343-.210937 4.804687-.515625.40625-.074219.8125-.160156 1.222656-.253906 1.601563-.355469 3.234375-.804687 4.914063-1.40625.089844-.03125.175781-.050781.265625-.082031 1.773437-.644532 3.589843-1.453125 5.425781-2.339844.453125-.21875.902344-.441406 1.355469-.675781 1.78125-.90625 3.578125-1.886719 5.394531-2.988281.074219-.042969.140625-.078126.214844-.121094 1.882812-1.148438 3.78125-2.425782 5.679687-3.757813.46875-.328125.933594-.660156 1.402344-1 1.863281-1.347656 3.722656-2.746093 5.570313-4.238281.035156-.027344.070312-.050781.101562-.082031 1.886719-1.523438 3.742188-3.132813 5.585938-4.777344.457031-.40625.90625-.8125 1.359374-1.226563 1.828126-1.667968 3.636719-3.371093 5.394532-5.128906 21.023437-21.023437 36.628906-47.839844 24.132812-60.339844l-12.167968-12.167968c21.839843-11.339844 36.773437-11.472656 42.339843-5.929688 11.390625 11.390625-4.25 52.515625-42.242187 90.507813-37.996094 37.996093-79.089844 53.605469-90.503906 42.238281zm127.761718-59.644531v156.832031c-10.824218-3.234375-22.265625-5.03125-34.132812-5.03125-11.863282 0-23.304688 1.796875-34.132813 5.03125v-93.257812c14.117188-8.460938 28.8125-19.835938 43.074219-34.105469 9.722656-9.722657 18.105469-19.652344 25.191406-29.46875zm-93.863281 399.265625c-4.707031 0-8.535156-3.824219-8.535156-8.53125 0-4.710938 3.828125-8.535156 8.535156-8.535156s8.53125 3.824218 8.53125 8.535156c0 4.707031-3.824219 8.53125-8.53125 8.53125zm119.464844 0c-4.707031 0-8.535157-3.824219-8.535157-8.53125 0-4.710938 3.828126-8.535156 8.535157-8.535156s8.535156 3.824218 8.535156 8.535156c0 4.707031-3.828125 8.53125-8.535156 8.53125zm-59.734375-25.597656c-56.464844 0-102.398438-45.933594-102.398438-102.402344 0-56.464844 45.933594-102.398438 102.398438-102.398438 56.46875 0 102.398437 45.933594 102.398437 102.398438 0 56.46875-45.929687 102.402344-102.398437 102.402344zm0 0"/><path d="m48.507812 319.519531 14.183594 9.5c12.714844-19.007812 33.941406-30.351562 56.773438-30.351562v-17.066407c-28.539063 0-55.066406 14.175782-70.957032 37.917969zm0 0"/><path d="m34.132812 366.933594h17.066407c0-7.796875 1.308593-15.457032 3.882812-22.757813l-16.097656-5.683593c-3.21875 9.136718-4.851563 18.703124-4.851563 28.441406zm0 0"/></svg>