<?xml version="1.0" encoding="iso-8859-1"?>
<!-- Generator: Adobe Illustrator 19.0.0, SVG Export Plug-In . SVG Version: 6.00 Build 0)  -->
<svg version="1.1" id="Layer_1" xmlns="http://www.w3.org/2000/svg" xmlns:xlink="http://www.w3.org/1999/xlink" x="0px" y="0px"
	 viewBox="0 0 512 512" style="enable-background:new 0 0 512 512;" xml:space="preserve">
<g>
	<g>
		<path d="M500.667,314.116v-48.849c0-20.236-7.792-39.346-21.944-53.813l-26.705-27.3l-31.075-51.673
			c-9.021-15-25.495-24.317-42.998-24.317H59.573c-28.119,0-50.995,22.876-50.995,50.995v86.579C3.457,248.68,0,254.191,0,260.519
			v41.293c0,6.328,3.457,11.839,8.577,14.78v13.568c0,9.415,7.633,17.048,17.048,17.048h34.286c-0.001,0.132-0.01,0.263-0.01,0.394
			c0,31.006,25.226,56.232,56.234,56.232c31.008,0,56.232-25.226,56.232-56.232c0-0.132-0.009-0.263-0.01-0.394h172.628
			c-0.001,0.132-0.01,0.263-0.01,0.394c0,31.006,25.225,56.232,56.232,56.232c31.008,0,56.234-25.226,56.234-56.232
			c0-0.132-0.009-0.263-0.01-0.394h37.522c9.415,0,17.048-7.633,17.048-17.048C512,322.754,507.266,316.468,500.667,314.116z
			 M346.827,142.26h31.12c5.608,0,10.888,2.986,13.778,7.792l29.511,49.072h-74.409V142.26z M42.673,159.16
			c0-9.318,7.582-16.9,16.9-16.9h253.159v56.864H42.673V159.16z M116.135,369.741c-12.207,0-22.138-9.931-22.138-22.137
			c0-12.206,9.931-22.137,22.138-22.137c12.207,0,22.137,9.931,22.137,22.137C138.272,359.81,128.342,369.741,116.135,369.741z
			 M401.206,369.741c-12.207,0-22.137-9.931-22.137-22.137c0-12.206,9.93-22.137,22.137-22.137c12.207,0,22.138,9.931,22.138,22.137
			C423.344,359.81,413.413,369.741,401.206,369.741z M466.571,313.114h-21.001c-10.298-13.218-26.35-21.743-44.365-21.743
			c-18.015,0-34.067,8.525-44.365,21.743H160.499c-10.298-13.218-26.35-21.743-44.365-21.743s-34.067,8.525-44.365,21.743H42.673
			V233.22h409.645l2.032,2.078c7.882,8.057,12.221,18.7,12.221,29.97V313.114z"/>
	</g>
</g>
<g>
</g>
<g>
</g>
<g>
</g>
<g>
</g>
<g>
</g>
<g>
</g>
<g>
</g>
<g>
</g>
<g>
</g>
<g>
</g>
<g>
</g>
<g>
</g>
<g>
</g>
<g>
</g>
<g>
</g>
</svg>
