<svg height="512pt" viewBox="0 -106 512 512" width="512pt" xmlns="http://www.w3.org/2000/svg"><path d="m176.859375 155.882812h-19.679687c-4.128907 0-7.472657 3.34375-7.472657 7.46875s3.34375 7.472657 7.472657 7.472657h19.679687c4.125 0 7.46875-3.347657 7.46875-7.472657s-3.34375-7.46875-7.46875-7.46875zm0 0"/><path d="m445.183594 0h-338.933594c-11.996094 0-22.761719 6.675781-28.097656 17.417969l-55.136719 111.035156c-2.488281 5.003906-3.800781 10.605469-3.800781 16.191406v3.9375c-11.074219 3.136719-19.214844 13.328125-19.214844 25.394531v32.871094c0 12.066406 8.140625 22.261719 19.214844 25.398438v8.636718c0 10.710938 8.714844 19.421876 19.425781 19.421876h42.230469c4 21.996093 23.285156 38.730468 46.417968 38.730468 23.136719 0 42.421876-16.734375 46.421876-38.730468h191.757812c4.003906 21.996093 23.289062 38.730468 46.421875 38.730468s42.417969-16.734375 46.421875-38.730468h34.261719c10.710937 0 19.425781-8.710938 19.425781-19.421876v-174.066406c0-36.839844-29.972656-66.816406-66.816406-66.816406zm-425.96875 215.761719c-2.601563-2.105469-4.273438-5.316407-4.273438-8.914063v-32.871094c0-3.597656 1.671875-6.808593 4.273438-8.910156zm108.078125 68.332031c-17.785157 0-32.257813-14.46875-32.257813-32.253906s14.472656-32.253906 32.257813-32.253906c17.785156 0 32.253906 14.46875 32.253906 32.253906s-14.46875 32.253906-32.253906 32.253906zm284.597656 0c-17.785156 0-32.253906-14.46875-32.253906-32.253906s14.46875-32.253906 32.253906-32.253906 32.253906 14.46875 32.253906 32.253906-14.46875 32.253906-32.253906 32.253906zm85.167969-162.777344h-51.75c-4.125 0-7.46875 3.347656-7.46875 7.472656s3.34375 7.472657 7.46875 7.472657h51.75v104.621093c0 2.472657-2.011719 4.480469-4.484375 4.480469h-33.941407c-3.167968-22.96875-22.914062-40.71875-46.742187-40.71875s-43.574219 17.75-46.742187 40.71875h-191.113282c-3.167968-22.96875-22.917968-40.71875-46.742187-40.71875-23.828125 0-43.574219 17.75-46.742188 40.71875h-41.910156c-2.472656 0-4.484375-2.007812-4.484375-4.480469v-96.238281c0-2.867187.589844-5.742187 1.707031-8.382812h44.230469v12.648437c0 7.769532 5.132812 14.601563 12.476562 16.617188 3.164063.871094 6.441407 1.3125 9.746094 1.3125 18.25 0 33.332032-13.085938 36.28125-30.578125h271.65625c4.125 0 7.472656-3.347657 7.472656-7.472657s-3.34375-7.46875-7.472656-7.46875h-272.191406c-1.5-6.085937-4.558594-11.742187-9.019531-16.476562-6.828125-7.25-15.996094-11.378906-25.816407-11.617188-3.460937-.085937-6.890624.3125-10.207031 1.179688-3.148437.820312-5.894531 2.492188-8.042969 4.714844h-2.816406l18.640625-38.367188h68.539063v38.367188h-7.058594c-4.128906 0-7.472656 3.34375-7.472656 7.472656 0 4.125 3.34375 7.46875 7.472656 7.46875h8.550781c7.414063 0 13.449219-6.03125 13.449219-13.445312v-41.359376c0-7.414062-6.035156-13.445312-13.449219-13.445312h-70.964843c-5.113282 0-9.863282 2.972656-12.097657 7.570312l-20.089843 41.355469c-2.039063 4.195313-1.777344 9.0625.695312 13.015625 2.472656 3.949219 6.734375 6.308594 11.398438 6.308594h.320312v7.257812h-36.855469l48.296875-97.253906c2.792969-5.625 8.433594-9.121094 14.714844-9.121094h338.933594c28.601562 0 51.875 23.269532 51.875 51.875zm-402.023438 27.59375v-37.753906c0-1.082031.722656-2.023438 1.757813-2.296875 1.792969-.464844 3.648437-.703125 5.527343-.703125.179688 0 .359376 0 .542969.003906 5.796875.144532 11.230469 2.601563 15.300781 6.925782 4.082032 4.332031 6.214844 9.925781 6.007813 15.742187-.421875 11.8125-10.023437 21.066406-21.855469 21.066406-1.964844 0-3.914062-.257812-5.789062-.773437-.863282-.238282-1.492188-1.167969-1.492188-2.210938zm0 0"/><path d="m306.875 45.808594h-100.605469c-7.417969 0-13.449219 6.035156-13.449219 13.449218v41.355469c0 7.414063 6.035157 13.445313 13.449219 13.445313h100.605469c7.414062 0 13.445312-6.03125 13.445312-13.445313v-41.355469c.003907-7.417968-6.03125-13.449218-13.445312-13.449218zm-1.492188 53.3125h-97.621093v-38.371094h97.621093zm0 0"/><path d="m420.421875 45.808594h-78.113281c-7.414063 0-13.445313 6.035156-13.445313 13.449218v41.355469c0 7.414063 6.03125 13.445313 13.445313 13.445313h100.609375c7.414062 0 13.445312-6.03125 13.445312-13.445313v-18.859375c0-19.820312-16.125-35.945312-35.941406-35.945312zm21 53.3125h-97.617187v-38.371094h76.617187c11.582031 0 21 9.421875 21 21.003906zm0 0"/><path d="m138.414062 251.839844c0 6.140625-4.980468 11.121094-11.121093 11.121094-6.144531 0-11.125-4.980469-11.125-11.121094 0-6.144532 4.980469-11.125 11.125-11.125 6.140625 0 11.121093 4.980468 11.121093 11.125zm0 0"/><path d="m423.015625 251.839844c0 6.140625-4.980469 11.121094-11.125 11.121094s-11.121094-4.980469-11.121094-11.121094c0-6.144532 4.976563-11.125 11.121094-11.125s11.125 4.980468 11.125 11.125zm0 0"/></svg>