<?xml version="1.0" encoding="iso-8859-1"?>
<!-- Generator: Adobe Illustrator 19.0.0, SVG Export Plug-In . SVG Version: 6.00 Build 0)  -->
<svg version="1.1" id="Capa_1" xmlns="http://www.w3.org/2000/svg" xmlns:xlink="http://www.w3.org/1999/xlink" x="0px" y="0px"
	 viewBox="0 0 480 480" style="enable-background:new 0 0 480 480;" xml:space="preserve">
<g>
	<g>
		<path d="M472,160H88c-4.416,0-8,3.576-8,8v80h16v-72h368v192H96v-72H80v80v32v32v32c0,4.424,3.584,8,8,8h384c4.416,0,8-3.576,8-8
			v-32v-32v-32V168C480,163.576,476.416,160,472,160z M464,464H96v-16h368V464z M464,432H96v-16h368V432z M464,400H96v-16h368V400z"
			/>
	</g>
</g>
<g>
	<g>
		<path d="M160,16h224V0H160c-17.648,0-32,14.352-32,32s14.352,32,32,32h116c11.024,0,20,8.968,20,20s-8.976,20-20,20H88
			c-48.52,0-88,39.48-88,88s39.48,88,88,88h100.688l-18.344,18.344l11.312,11.312l32-32c3.128-3.128,3.128-8.184,0-11.312l-32-32
			l-11.312,11.312L188.688,264H88c-39.696,0-72-32.296-72-72s32.304-72,72-72h188c19.848,0,36-16.152,36-36s-16.152-36-36-36H160
			c-8.824,0-16-7.176-16-16S151.176,16,160,16z"/>
	</g>
</g>
<g>
	<g>
		<rect x="400" width="16" height="16"/>
	</g>
</g>
<g>
	<g>
		<rect x="432" width="16" height="16"/>
	</g>
</g>
<g>
	<g>
		<rect x="464" width="16" height="16"/>
	</g>
</g>
<g>
	<g>
		<path d="M447.992,232c0-4.424-3.584-8-8-8c-13.232,0-23.992-10.768-24-24c0-4.424-3.584-8-8-8H152c-4.416,0-8,3.576-8,8
			c0,13.232-10.768,24-24,24c-4.416,0-8,3.576-8,8v16h16v-8.808c15.648-3.184,28.008-15.544,31.192-31.192l241.608,0.008
			c3.192,15.648,15.552,28,31.2,31.184V304.8c-15.648,3.184-28,15.544-31.192,31.192H159.192
			c-3.184-15.648-15.544-28.008-31.192-31.192V296h-16v16c0,4.424,3.584,8,8,8c13.232,0,24,10.768,24,24c0,4.424,3.584,8,8,8h256
			c4.416,0,8-3.576,8-8c0-13.232,10.768-24,24-24c2.12,0,4.16-0.84,5.656-2.344c1.496-1.504,2.344-3.528,2.344-5.656L447.992,232z"
			/>
	</g>
</g>
<g>
	<g>
		<path d="M280,224c-26.472,0-48,21.528-48,48s21.528,48,48,48s48-21.528,48-48S306.472,224,280,224z M280,304
			c-17.648,0-32-14.352-32-32s14.352-32,32-32s32,14.352,32,32S297.648,304,280,304z"/>
	</g>
</g>
<g>
	<g>
		<rect x="376" y="264" width="16" height="16"/>
	</g>
</g>
<g>
</g>
<g>
</g>
<g>
</g>
<g>
</g>
<g>
</g>
<g>
</g>
<g>
</g>
<g>
</g>
<g>
</g>
<g>
</g>
<g>
</g>
<g>
</g>
<g>
</g>
<g>
</g>
<g>
</g>
</svg>
