<svg enable-background="new 0 0 140 140" height="512" viewBox="0 0 140 140" width="512" xmlns="http://www.w3.org/2000/svg"><circle cx="70" cy="70" fill="#344d5b" r="64"/><path d="m74.836731 34.4135056 18.8699951 18.8699951c.0599976.4599609.1100464.9300537.1500244 1.4100342h-4.7600098l10.3800049 12.289917 29.0064087 29.0064697c2.5549927-5.7404785 4.288269-11.9230957 5.0541992-18.4058838l-36.3505859-36.350586c-4.670044-4.9300537-11.7800293-8.7199707-22.3500366-6.8199462z" opacity=".1"/><path d="m100.3167725 73.0134811c-1.2000122-1.1800537-2.5800171-2.2000732-4.0800171-3l-27.8900147-27.8900146c-7.0700073-7.0700684-18.5200195-7.0700684-25.5899658 0-7.0700073 7.0700684-7.0700073 18.5200195 0 25.5900879l57.8899536 57.8898926.3753662.3754883c10.9785156-6.097168 19.9667969-15.3288574 25.7729492-26.4870605l-26.3482666-26.3483888z" opacity=".1"/><path d="m30.1367817 85.3033981 9.5799541 9.5800781c1.1000366 1.6400146 2.4200439 3.2800293 3.9800415 4.7800293l.1399536.1298828 33.7442627 33.7443924c6.4829102-.765625 12.6659546-2.4987793 18.4064941-5.0534668l-55.4707641-55.4708328z" opacity=".1"/><ellipse cx="55.549" cy="54.921" fill="#feda6f" rx="18.094" ry="18.095" transform="matrix(.987 -.16 .16 .987 -8.08 9.607)"/><ellipse cx="55.549" cy="54.921" fill="#efbe43" rx="14.583" ry="14.583" transform="matrix(.987 -.16 .16 .987 -8.08 9.607)"/><path d="m55.0388756 64.5419312v-1.9114418c-.9557228-.1203499-1.7326889-.3345032-2.3308983-.6424561-.5982132-.3079567-1.1150093-.8052864-1.5503922-1.4919891-.4353867-.6867027-.6884766-1.5256157-.7592697-2.5167313l1.9220619-.3610497c.1486664 1.0265121.4106064 1.7804718.7858162 2.2618713.5380363.6796265 1.1822624 1.0583725 1.932682 1.1362457v-6.0847588c-.7858162-.1486664-1.5893326-.453083-2.4105415-.9132423-.6088333-.3398132-1.0778427-.8105965-1.4070358-1.4123459s-.4937897-1.2849121-.4937897-2.0494919c0-1.3592453.4813995-2.4600945 1.4442024-3.3025475.6442261-.5663528 1.5999489-.9132423 2.8671646-1.0406723v-.9132462h1.1256256v.9132462c1.1114693.1061897 1.9928551.4318428 2.6441612.9769592.8353729.6937828 1.3380127 1.6459618 1.5079155 2.8565445l-1.9751548.2973368c-.1132698-.7504196-.3486633-1.3256226-.7061729-1.7256088s-.8477592-.6636963-1.4707489-.7911263v5.5113258c.9627991.2406998 1.5999489.4283066 1.9114418.5628128.5946732.26194 1.0796127.580513 1.4548225.9557228.375206.3752098.6636925.8212128.8654556 1.3380089.201767.5167999.3026466 1.0760727.3026466 1.6778221 0 1.3238525-.4212265 2.4282417-1.2636757 3.3131676-.8424492.8849297-1.932682 1.3592491-3.2706909 1.4229622v1.932682h-1.1256255zm0-16.7357407c-.7433395.1132698-1.3291626.4106064-1.7574654.8920059-.4283066.4813995-.6424599 1.0512924-.6424599 1.7096786 0 .6513062.1822968 1.1964226.5468864 1.6353455s.9822693.7893562 1.8530388 1.0512924v-5.2883224zm1.1256256 13.2101898c.7433395-.0920296 1.3574791-.4141426 1.8424187-.9663391.4849396-.5521927.7274094-1.2353592.7274094-2.0494919 0-.6937828-.1716766-1.2512856-.5150261-1.6725121-.3433533-.4212265-1.028286-.7982025-2.0548019-1.1309357v5.8192788z" fill="#feda6f"/><ellipse cx="87.654" cy="85.933" fill="#feda6f" rx="18.094" ry="18.095" transform="matrix(.987 -.16 .16 .987 -12.633 15.15)"/><ellipse cx="87.654" cy="85.933" fill="#efbe43" rx="14.583" ry="14.583" transform="matrix(.987 -.16 .16 .987 -12.633 15.15)"/><path d="m85.8443375 85.0485458h3.595932v1.6895142h-3.2420502c.1445999.3348618.2169037.6697235.2169037 1.0045776 0 .6621094-.1579208 1.3622742-.4737549 2.1004868s-.8352432 1.4916458-1.5582352 2.2602997c.6012268-.1674271 1.1491776-.2511444 1.6438522-.2511444.6316681 0 1.3432465.0951309 2.1347351.2853928 1.3089905.312027 2.19561.4680405 2.6598434.4680405.563179 0 1.2937775-.213089 2.1918106-.6392746l.6621094 1.8835831c-.7001648.2968063-1.2424088.4908752-1.6267319.5821991-.3843307.0913239-.7667542.1369858-1.1472778.1369858-.3196335 0-.6430817-.0304413-.9703293-.0913239-.2054825-.0380554-.6982574-.1769409-1.4783249-.4166718-.7800751-.2397308-1.2842636-.3824234-1.5125809-.4280853-.3576889-.0608826-.7153778-.0913239-1.0730743-.0913239-.5479507 0-1.1320496.0951309-1.7523041.2853851-.6202469.1902618-1.1853256.4490204-1.6952209.776268l-.7876816-1.9749069c.7305984-.4033585 1.350853-.9798508 1.8607483-1.7294769.509903-.7496262.7648544-1.6647797.7648544-2.7454681 0-.4642334-.0646896-.9360809-.1940689-1.4155426h-2.2374725v-1.6895142h1.7580185c-.2511444-.8523712-.410965-1.4745255-.4794617-1.8664627s-.1027374-.7743607-.1027374-1.1472778c0-1.5829697.5859985-2.819664 1.7580109-3.7100906.9436951-.7077713 2.0852585-1.0616531 3.4246979-1.0616531 1.3774872 0 2.5133514.3786163 3.4075775 1.1358566s1.4440842 1.8208008 1.649559 3.1906815l-2.0434036.3082199c-.114151-.9132538-.4547195-1.6324387-1.021698-2.1575623-.5669785-.525116-1.2462082-.7876816-2.0376968-.7876816-.8447571 0-1.5468216.2720795-2.1061935.8162231-.5593643.5441437-.8390503 1.2005463-.8390503 1.9692001 0 .844757.216896 1.9482727.6506958 3.3105468z" fill="#feda6f"/><path d="m104.8241577 54.6960793c-1.7157211-5.5387955-9.0735092-24.0436211-29.9896469-20.2787209 0 0 17.2701645.1352844 19.024086 20.2787209h-4.7662048l10.3878555 12.2883873 10.3878555-12.2883873z" fill="#dd584d"/><path d="m35.1758423 85.3039169c1.7157211 5.5387955 9.0735092 24.0436249 29.9896469 20.2787247 0 0-17.2701645-.1352844-19.0240822-20.2787247h4.766201l-10.3878555-12.2883835-10.3878536 12.2883835z" fill="#4da0dc"/></svg>